name processed_emg_signals
nRows=82
nColumns=7
 
endheader
time	LGLTMED	LRF	LADDLONG	LST	LTA	LGM
3.0220000000000002	0.2500028273953734	0.3410855957535224	0.1839743139330218	0.0843221161659427	0.6705294850252094	0.2534210522364189
3.023	0.2432029867157174	0.3425253261301433	0.1842206993531468	0.0829443482802872	0.6630465464520415	0.2526373021467032
3.024	0.2365566049487986	0.3440386590834168	0.1844906744310621	0.0815846374710878	0.6555722350711415	0.2518327996146934
3.025	0.230064966636431	0.3456242388197749	0.1847844605047602	0.0802429387742558	0.6481100257657691	0.2510061250810887
3.0260000000000002	0.2237292192842173	0.3472805556528788	0.1851022290972014	0.0789192310455998	0.6406633332684093	0.2501559237019641
3.027	0.2175503728565263	0.3490059473822334	0.1854441008194481	0.0776135152768471	0.6332355084559482	0.2492809067763306
3.028	0.2115292993876956	0.3507986010352272	0.1858101443888081	0.0763258129391109	0.6258298346989415	0.2483798529973436
3.029	0.2056667327117938	0.352656554973896	0.1862003757658494	0.0750561643561838	0.6184495242753888	0.2474516095238612
3.0300000000000002	0.1999632683128663	0.3545777013663059	0.1866147574136607	0.0738046271098915	0.6110977148596827	0.2464950928713562
3.031	0.1944193632973534	0.3565597890215317	0.1870531976826339	0.0725712744796421	0.6037774660971721	0.2455092896236674
3.032	0.1890353364902369	0.3586004265860041	0.1875155503239629	0.0713561939180099	0.59649175627494	0.2444932569695044
3.033	0.1838113686568434	0.3606970860980645	0.1880016141347342	0.0701594855641188	0.5892434790996102	0.2434461230694318
3.0340000000000003	0.1787475028526504	0.3628471068966042	0.1885111327375331	0.0689812607964045	0.5820354405933317	0.2423670872601294
3.035	0.1738436449039233	0.3650476998784154	0.1890437944970919	0.0678216408260343	0.574870356119195	0.241255420103272
3.036	0.1690995640222969	0.367295952097987	0.1895992325760759	0.0666807553321604	0.567750847547174	0.2401104632867646
3.037	0.1645148935562088	0.3695888317020172	0.1901770251317995	0.0655587411398792	0.5606794405717804	0.2389316293863838
3.0380000000000003	0.160089131881966	0.3719231931901043	0.1907766956551464	0.0644557409416883	0.5536585621926603	0.237718401496135
3.039	0.1558216434367629	0.3742957829917153	0.1913977134525334	0.0633719020630142	0.5466905383691081	0.2364703327356852
3.04	0.1517116598956199	0.3767032453487614	0.1920394942713017	0.0623073752723561	0.5397775918592382	0.2351870456431108
3.041	0.1477582814938399	0.379142128491704	0.1927014010684047	0.0612623136363784	0.532921840253548	0.2338682314609131
3.0420000000000003	0.1439604784960713	0.3816088910963829	0.1933827449217295	0.0602368714202143	0.5261252942120983	0.2325136493228138
3.043	0.1403170928126386	0.3840999090072826	0.1940827860829048	0.0592312030330054	0.519389855913368	0.2311231253482999
3.044	0.1368268397633665	0.3866114822123173	0.194800735170038	0.0582454620185311	0.5127173177226215	0.2296965516514753
3.045	0.1334883099887736	0.3891398420530889	0.1955357544982126	0.0572798000907359	0.5061093610866843	0.2282338852705589
3.0460000000000003	0.130299971508332	0.3916811586539239	0.1962869595453216	0.0563343662137802	0.4995675556614283	0.226735147024344
3.047	0.1272601719251486	0.3942315485523016	0.1970534205500088	0.0554093057262717	0.4930933586770933	0.2252004203017718
3.048	0.1243671407762853	0.3967870825125518	0.1978341642382153	0.0545047595092916	0.4866881145452292	0.2236298497905678
3.049	0.1216189920276804	0.3993437935039511	0.1986281756742437	0.0536208631976905	0.4803530547100527	0.2220236401502967
3.0500000000000003	0.1190137267124126	0.401897684823683	0.1994344002317241	0.0527577464341572	0.4740892977462044	0.2203820546345434
3.051	0.1165492357108347	0.4044447383443431	0.2002517456793479	0.0519155321654526	0.467897849704677	0.2187054136662125
3.052	0.1142233026708021	0.4069809228653804	0.2010790843759076	0.051094335980205	0.4617796047083253	0.2169940933693782
3.053	0.1120336070659169	0.4095022025477181	0.2019152555685842	0.0502942654876638	0.4557353457982079	0.2152485240604697
3.0540000000000003	0.1099777273893441	0.4120045454109242	0.202759067788688	0.0495154197367583	0.4497657460312389	0.2134691887012569
3.055	0.1080531444804298	0.4144839318726726	0.2036093013388558	0.0487578886747267	0.4438713698288034	0.2116566213157917
3.056	0.1062572449810916	0.4169363633110626	0.2044647108660751	0.0480217526445919	0.4380526745753708	0.2098114053734415
3.057	0.1045873249186148	0.419357870630867	0.2053240280151285	0.0473070819205478	0.4323100124651851	0.207934172140138
3.0580000000000003	0.1030405934112113	0.4217445228156207	0.2061859641573036	0.0466139362803701	0.4266436325942743	0.2060255989998616
3.059	0.1016141764924026	0.4240924354479341	0.2070492131893387	0.0459423646139314	0.421053683293848	0.2040864077482317
3.06	0.1003051210499609	0.4263977791808505	0.2079124543976574	0.045292404566764	0.4155402146999115	0.2021173628598216
3.061	0.0991103988748802	0.4286567881432026	0.2087743553828923	0.0446640822178324	0.4101031815528803	0.2001192697307166
3.0620000000000003	0.0980269108154978	0.430865768261262	0.2096335750396083	0.0440574117904561	0.4047424462197988	0.1980929728977868
3.063	0.0970514910317047	0.4330211054783677	0.2104887665860295	0.0434723953954766	0.399457781930904	0.1960393542362756
3.064	0.0961809113437481	0.4351192738536965	0.2113385806385221	0.0429090228057019	0.3942488762212293	0.1939593311374123
3.065	0.0954118856700065	0.4371568435208208	0.2121816683254509	0.0423672712605497	0.3891153345668135	0.1918538546678532
3.0660000000000003	0.0947410745477588	0.439130488486918	0.2130166844349875	0.0418471052999102	0.3840566842039676	0.1897239077128104
3.067	0.0941650897307857	0.4410369942533967	0.2138422905912685	0.0413484766261438	0.3790723781189377	0.1875705031046461
3.068	0.0936804988573663	0.4428732652388978	0.214657158452996	0.0408713239932619	0.3741617991942184	0.185394681738779
3.069	0.0932838301821337	0.4446363319861416	0.215459972928298	0.0404155731223606	0.3693242644966839	0.1831975106787934
3.0700000000000003	0.0929715773649536	0.4463233581338173	0.2162494353995716	0.0399811366424568	0.3645590296915031	0.1809800812525877
3.071	0.0927402043098973	0.4479316471349213	0.2170242669519258	0.0395679140559258	0.3598652935645767	0.1787435071412622
3.072	0.0925861500470619	0.4494586487021167	0.2177832115992193	0.0391757917278771	0.3552422026349317	0.1764889224622348
3.073	0.0925058336497772	0.4509019649604872	0.2185250395015137	0.038804642898758	0.3506888558375196	0.1742174798478195
3.074	0.092495659179376	0.4522593562871931	0.2192485501678787	0.0384543277195282	0.3462043092556432	0.1719303485202805
3.075	0.0925520206495899	0.4535287468176057	0.2199525756382647	0.0381246933087915	0.3417875808815213	0.1696287123643522
3.076	0.0926713070022435	0.4547082295972714	0.2206359836377537	0.0378155738310897	0.3374376553826343	0.1673137679983293
3.077	0.0928499070858128	0.4557960713597113	0.221297680696553	0.0375267905957005	0.3331534888507447	0.1649867228452561
3.078	0.0930842146280541	0.4567907169104825	0.2219366152287167	0.0372581521751527	0.3289340135104559	0.1626487932061796
3.079	0.0933706331937822	0.4576907930989729	0.2225517805627181	0.0370094545426745	0.3247781423645113	0.1603012023378727
3.08	0.0937055811185434	0.458495112360928	0.2231422179165792	0.0367804812277544	0.3206847737543977	0.1579451785377104
3.081	0.094085496408795	0.459202675817057	0.2237070193103336	0.0365710034889726	0.31665279581622	0.1555819532383382
3.082	0.0945068415990972	0.459812675915348	0.2242453304081559	0.0363807805032108	0.3126810908138518	0.1532127591147613
3.083	0.0949661085565509	0.4603244986065004	0.2247563532826409	0.0362095595703147	0.3087685393332844	0.1508388282062153
3.084	0.0954598232228076	0.4607377250438786	0.2252393490935142	0.0360570763322865	0.3049140243236027	0.1484613900551496
3.085	0.0959845502837429	0.4610521328007355	0.2256936406732366	0.0359230550060063	0.3011164349717159	0.1460816698656137
3.086	0.0965368977569853	0.4612676965997395	0.2261186150120593	0.0358072086286421	0.2973746703992333	0.1437008866833161
3.087	0.0971135214873918	0.461384588551702	0.2265137256352053	0.0357092393148488	0.2936876431724524	0.1413202515997189
3.088	0.0977111295406925	0.4614031779034239	0.2268784948655308	0.0356288385251064	0.2900542826189131	0.1389409659825911
3.089	0.0983264864853994	0.4613240302982974	0.2272125159649889	0.035565687344516	0.2864735379466965	0.1365642197357346
3.09	0.0989564175531361	0.4611479065573154	0.2275154551484916	0.0355194567714984	0.2829443811644067	0.1341911895907558
3.091	0.0995978126676339	0.46087576099155	0.227787053463718	0.0354898080158022	0.2794658098012604	0.1318230374339923
3.092	0.1002476303330286	0.460508739259853	0.228027128530353	0.0354763928052527	0.2760368494273603	0.1294609086716865
3.093	0.100902901372677	0.4600481757874995	0.2282355761321174	0.0354788537007152	0.2726565559744944	0.1271059306366536
3.094	0.101560732510258	0.4594955907624232	0.2284123716547574	0.0354968244187769	0.269324017857796	0.1247592110396549
3.095	0.10221830978555	0.4588526867261099	0.2285575713631586	0.0355299301615619	0.2660383578986179	0.1224218364687428
3.096	0.1028729017978244	0.4581213447757474	0.2286713135112654	0.0355777879532412	0.2627987350494595	0.1200948709397634
3.097	0.1035218627702212	0.45730362039445	0.2287538192786906	0.0356400069826473	0.2596043459223747	0.1177793545011475
3.098	0.1041626354288753	0.4564017389262373	0.2288053935284758	0.03571618895157	0.2564544261227586	0.1154763018960092
3.099	0.1047927536910996	0.4554180907128107	0.2288264253805111	0.0358059284281919	0.2533482513906895	0.1131867012844524
3.1	0.1054098451573745	0.4543552259088648	0.2288173885948011	0.035908813205229	0.2502851385520633	0.1109115130287512
3.101	0.106011633402467	0.4532158489923654	0.2287788417589994	0.0360244246622559	0.2472644462814459	0.1086516685439698
3.102	0.1065959400612786	0.4520028129855625	0.2287114282745661	0.0361523381318796	0.2442855756783299	0.1064080692164332
3.103	0.1071606867054252	0.4507191134015906	0.2286158761368203	0.0362921232694172	0.2413479706581012	0.1041815853924589
